Coordinates
version=1
nRows=16
nColumns=40
inDegrees=yes

Units are S.I. units (second, meters, Newtons, ...)
If the header above contains a line with 'inDegrees', this indicates whether rotational values are in degrees (yes) or radians (no).

endheader
time	pelvis_tilt	pelvis_list	pelvis_rotation	pelvis_tx	pelvis_ty	pelvis_tz	hip_flexion_r	hip_adduction_r	hip_rotation_r	knee_angle_r	knee_angle_r_beta	ankle_angle_r	subtalar_angle_r	mtp_angle_r	hip_flexion_l	hip_adduction_l	hip_rotation_l	knee_angle_l	knee_angle_l_beta	ankle_angle_l	subtalar_angle_l	mtp_angle_l	lumbar_extension	lumbar_bending	lumbar_rotation	arm_flex_r	arm_add_r	arm_rot_r	elbow_flex_r	pro_sup_r	wrist_flex_r	wrist_dev_r	arm_flex_l	arm_add_l	arm_rot_l	elbow_flex_l	pro_sup_l	wrist_flex_l	wrist_dev_l
      0.72000000	      4.70579033	      1.82766797	     -6.06801862	      0.42097335	      0.93682986	     -0.20754675	    -15.87757191	      1.93020972	    -12.65540994	      9.69611454	      0.16922912	      7.74274494	      0.00000000	      0.00000000	     13.38822955	      3.11219894	    -12.89498594	      5.74661010	      0.10029727	      3.25874547	      0.00000000	      0.00000000	    -12.33497175	     -4.32645186	     15.81236608	      0.75803914	      1.41596694	     -9.03342941	     48.48191775	     82.66526658	      8.23332676	      7.99322926	    -11.61490909	      5.55931352	    -15.27986665	     38.23098477	     87.60207701	     -2.82961580	     16.80953798
      0.73000000	      4.98029860	      1.89825574	     -6.41360462	      0.42999311	      0.93685020	     -0.20769599	    -16.50255401	      1.58037764	    -12.58532580	     10.15775812	      0.17728632	      7.56768391	      0.00000000	      0.00000000	     12.93650962	      3.17706124	    -13.49638010	      6.50674300	      0.11356409	      3.24832567	      0.00000000	      0.00000000	    -12.42086563	     -4.46023344	     15.90989115	      0.58258469	      1.52200949	     -9.07142169	     48.35292887	     82.68862808	      8.26522838	      7.98075520	    -11.69043539	      5.65979431	    -15.20044094	     38.07080493	     87.58344955	     -2.79383471	     16.86026973
      0.74000000	      5.13628329	      1.98096617	     -6.66079173	      0.43909087	      0.93681458	     -0.20785910	    -16.99873211	      1.25916992	    -12.48164374	     10.62543836	      0.18544888	      7.27154338	      0.00000000	      0.00000000	     12.55610033	      3.25570398	    -13.67854380	      7.18312956	      0.12536926	      3.12552150	      0.00000000	      0.00000000	    -12.34729202	     -4.59983851	     15.95322616	      0.37296731	      1.65142222	     -9.10388886	     48.13820029	     82.69460628	      8.27491494	      7.98300874	    -11.73732457	      5.70911316	    -15.14980901	     37.93038904	     87.57595726	     -2.77147405	     16.88730550
      0.75000000	      5.39882368	      2.10660258	     -6.96084660	      0.44837889	      0.93697718	     -0.20810044	    -17.54387261	      0.83223471	    -12.48612791	     11.22345636	      0.19588627	      6.93393765	      0.00000000	      0.00000000	     12.08499821	      3.37439270	    -14.22568194	      7.94977564	      0.13874976	      3.03770960	      0.00000000	      0.00000000	    -12.37869134	     -4.77884358	     15.94891183	      0.15799432	      1.79089008	     -9.15760975	     47.92491847	     82.71130858	      8.29452534	      7.96924016	    -11.79727311	      5.74233093	    -15.04278040	     37.78025213	     87.56699285	     -2.73234691	     16.92137352
      0.76000000	      5.89125855	      2.34665788	     -7.41027070	      0.45793923	      0.93746782	     -0.20828539	    -18.29500845	      0.19565646	    -12.45604350	     11.87725691	      0.20729724	      6.72391283	      0.00000000	      0.00000000	     11.31346049	      3.62935647	    -15.23972748	      8.60750032	      0.15022922	      2.87469996	      0.00000000	      0.00000000	    -12.61743607	     -5.13347885	     16.03895945	     -0.10927801	      1.92317440	     -9.22178745	     47.80068396	     82.81170942	      8.34897576	      7.91721488	    -11.87692743	      5.75425367	    -14.86538552	     37.75457045	     87.51776665	     -2.65215139	     16.98046951
      0.77000000	      6.05082624	      2.50686203	     -7.59562347	      0.46740105	      0.93771637	     -0.20874595	    -18.67890619	     -0.24155307	    -12.30195776	     12.55250890	      0.21908261	      6.16003574	      0.00000000	      0.00000000	     10.85643485	      3.82064343	    -15.29692227	      9.17216662	      0.16008451	      2.72794304	      0.00000000	      0.00000000	    -12.51388854	     -5.32575567	     15.92429423	     -0.39350703	      2.07819869	     -9.31296966	     47.53096485	     82.81974906	      8.34254311	      7.92094885	    -11.91629870	      5.74915756	    -14.78080805	     37.66228835	     87.52574898	     -2.62384255	     17.01112076
      0.78000000	      6.25941414	      2.71020563	     -7.76261985	      0.47706540	      0.93811034	     -0.20929011	    -19.03469308	     -0.75816313	    -12.26859853	     13.40923211	      0.23403525	      5.55418969	      0.00000000	      0.00000000	     10.34862485	      4.06955587	    -15.54775204	      9.74630969	      0.17010519	      2.61545077	      0.00000000	      0.00000000	    -12.44095436	     -5.54634151	     15.72802736	     -0.70370970	      2.25440166	     -9.41037157	     47.25100612	     82.83450228	      8.33809279	      7.92268772	    -11.96875444	      5.71493954	    -14.63831378	     37.58863428	     87.53832095	     -2.58482545	     17.04162877
      0.79000000	      6.50779984	      2.96927596	     -7.92256826	      0.48664015	      0.93863054	     -0.20993658	    -19.31992536	     -1.35532039	    -12.25188275	     14.44951332	      0.25219158	      4.88300358	      0.00000000	      0.00000000	      9.79754833	      4.39502804	    -15.83758100	     10.28748534	      0.17955049	      2.52547249	      0.00000000	      0.00000000	    -12.40391873	     -5.84029318	     15.48086825	     -0.98766668	      2.42472124	     -9.52481741	     46.96892705	     82.86189569	      8.33293229	      7.92632109	    -11.99661567	      5.65352759	    -14.45307537	     37.55644447	     87.54782821	     -2.53836630	     17.07320840
      0.80000000	      6.76513198	      3.26358728	     -8.05760149	      0.49625337	      0.93923706	     -0.21062479	    -19.52185829	     -2.00756385	    -12.19573932	     15.67631102	      0.27360324	      4.15864816	      0.00000000	      0.00000000	      9.21556378	      4.77440054	    -16.09118502	     10.76260312	      0.18784286	      2.45327811	      0.00000000	      0.00000000	    -12.38742565	     -6.16951863	     15.18103151	     -1.29442977	      2.60849374	     -9.64412691	     46.67842213	     82.90253544	      8.32524382	      7.93817581	    -12.00942450	      5.55745806	    -14.24290734	     37.56248510	     87.55519267	     -2.49021799	     17.10876572
      0.81000000	      7.11970616	      3.69780032	     -8.25456062	      0.50594691	      0.93996315	     -0.21140563	    -19.65358328	     -2.89560188	    -12.31025619	     17.25299512	      0.30112157	      3.66720128	      0.00000000	      0.00000000	      8.50975759	      5.33029704	    -16.59630638	     11.13650062	      0.19436860	      2.25284451	      0.00000000	      0.00000000	    -12.43580783	     -6.66074076	     14.91436225	     -1.62359408	      2.77053899	     -9.75006296	     46.37805042	     83.05314376	      8.33200969	      7.97749889	    -12.02543901	      5.42822784	    -13.93370054	     37.67754458	     87.52380796	     -2.42427087	     17.18097816
      0.82000000	      7.33162789	      4.00557340	     -8.33237352	      0.51536008	      0.94064509	     -0.21235005	    -19.58682876	     -3.57666692	    -11.96437108	     18.87048553	      0.32935210	      2.76850385	      0.00000000	      0.00000000	      7.93343579	      5.77355409	    -16.59944637	     11.47617510	      0.20029704	      2.25427777	      0.00000000	      0.00000000	    -12.39535778	     -6.97866521	     14.54676033	     -1.93416998	      2.92775269	     -9.90176085	     46.07696999	     83.12636366	      8.31505715	      8.02711303	    -11.97222636	      5.32402025	    -13.70080262	     37.74937569	     87.53716231	     -2.38398082	     17.24989485
      0.83000000	      7.51016108	      4.26008370	     -8.34394313	      0.52456253	      0.94135290	     -0.21325783	    -19.38733088	     -4.15874753	    -11.40774522	     20.63019391	      0.36006481	      1.65116178	      0.00000000	      0.00000000	      7.38374222	      6.16479262	    -16.43211112	     11.80971415	      0.20611840	      2.39902102	      0.00000000	      0.00000000	    -12.38706849	     -7.23340795	     14.03292715	     -2.20656858	      3.11409054	    -10.05049385	     45.83947065	     83.13926845	      8.29070585	      8.06264654	    -11.86789201	      5.18378880	    -13.47979514	     37.75755393	     87.58506000	     -2.34983188	     17.30278606
      0.84000000	      7.55593380	      4.74549548	     -8.56079058	      0.53361727	      0.94176259	     -0.21417430	    -18.67054670	     -5.12957430	    -10.98088951	     23.12510768	      0.40360927	      1.14409396	      0.00000000	      0.00000000	      6.98218664	      6.78126151	    -16.67769762	     12.01581537	      0.20971554	      2.34742348	      0.00000000	      0.00000000	    -12.18688843	     -7.76011952	     13.80276455	     -2.53232357	      3.22098052	    -10.10955089	     45.56021187	     83.31687932	      8.27407837	      8.23323436	    -11.73672247	      4.99388948	    -13.05469049	     37.91750733	     87.56507241	     -2.29852300	     17.41223100
      0.85000000	      7.58396451	      5.00228394	     -8.71848016	      0.54233670	      0.94224577	     -0.21511464	    -17.88694585	     -5.79182966	    -10.15176585	     25.59113993	      0.44664965	      0.16145684	      0.00000000	      0.00000000	      6.57644155	      7.17112210	    -16.58788483	     12.24381032	      0.21369480	      2.52661722	      0.00000000	      0.00000000	    -12.03359190	     -8.01431728	     13.51340366	     -2.80767546	      3.30764169	    -10.22762725	     45.29440253	     83.38162434	      8.26179363	      8.36557314	    -11.53238625	      4.82766584	    -12.68056847	     38.01282756	     87.58111750	     -2.25536271	     17.48036122
      0.86000000	      7.77686439	      5.13117472	     -8.72609423	      0.55076347	      0.94296863	     -0.21622356	    -17.25664091	     -6.24715024	     -9.22378547	     28.00929084	      0.48885435	     -1.15508498	      0.00000000	      0.00000000	      5.97725862	      7.48307640	    -16.24897892	     12.47594789	      0.21774637	      2.85444682	      0.00000000	      0.00000000	    -12.18815927	     -8.12589374	     12.94585422	     -2.96050504	      3.41481030	    -10.39101498	     45.04021903	     83.35140103	      8.24234827	      8.40969665	    -11.25306945	      4.69293159	    -12.35849056	     38.04254071	     87.65092708	     -2.20957234	     17.51196705
      0.87000000	      7.94355165	      5.25116509	     -8.82801538	      0.55875135	      0.94355665	     -0.21724672	    -16.34793843	     -6.73543488	     -8.28400850	     30.82035658	      0.53791670	     -2.26360817	      0.00000000	      0.00000000	      5.39604094	      7.78508115	    -15.98487403	     12.62253416	      0.22030478	      3.15044108	      0.00000000	      0.00000000	    -12.36034216	     -8.25543157	     12.53029558	     -3.08613305	      3.44951534	    -10.43357265	     44.82119333	     83.36543501	      8.23300412	      8.47960090	    -10.89736507	      4.53369173	    -11.95099661	     38.20397458	     87.70220250	     -2.15006452	     17.52097679
